<svg width="256" height="256" xmlns="http://www.w3.org/2000/svg" xmlns:xlink="http://www.w3.org/1999/xlink" overflow="hidden"><path d="M128.012 64.105C121.155 64.108 114.3 67.672 109.074 74.795L66.717 112.075C61.357 115.435 55.349 119.262 49.527 119.105L32.04 119.105 29.01 119C26.861 119.367 25.048 121.35 25.001 123.102L25.001 133.004C25.621 135.575 26.899 136.655 29.011 137.105L32.041 137 49.528 137C55.436 137.484 62.571 140.495 66.718 144.031L109.075 181.311C119.527 195.557 136.492 195.564 146.965 181.326L189.448 144.908C194.476 140.598 203.92 137.105 210.554 137.105 216.039 137.399 221.524 137.701 227.009 138 229.217 138 231.001 135.21 231.001 133.004L231.001 123.102C231.001 120.895 229.217 118.105 227.009 118.105 221.524 118.401 216.039 118.71 210.554 119 203.92 119 194.476 115.505 189.448 111.195L146.965 74.78C141.728 67.662 134.868 64.104 128.012 64.106ZM128.222 82.807C131.365 82.802 134.511 83.943 136.914 86.227L178.738 124.98C179.848 126.035 181.145 127.065 182.562 128.053 181.145 129.04 179.848 130.068 178.738 131.123L136.914 170.879C132.107 175.448 124.337 175.439 119.544 170.848L77.074 130.172C76.2783 129.417 75.4392 128.709 74.561 128.052 75.4391 127.395 76.2782 126.688 77.074 125.934L119.544 86.258C121.941 83.962 125.08 82.811 128.223 82.807Z" fill="#ECD8C8"/></svg>