<svg width="256" height="256" xmlns="http://www.w3.org/2000/svg" xmlns:xlink="http://www.w3.org/1999/xlink" overflow="hidden"><path d="M231.007 68.729C231.007 66.523 229.22 63.734 227 63.734L141.501 63.734C135.035 63.734 121.97 71.439 118.841 79.704L62.921 165.351C59.297 170.901 50.991 175.401 44.362 175.401L28.167 175.401C25.961 175.401 24.173 178.188 24.173 180.408L24.173 189.393C24.1719 191.603 25.9611 193.396 28.171 193.4L50.884 193.4C59.716 193.4 71.379 184.697 74.472 176.413L130.639 92.224C134.319 86.707 142.679 82.234 149.307 82.234L227.002 82.234C229.214 82.234 231.007 79.437 231.007 77.24L231.007 68.73Z" fill="#ECD8C8" fill-rule="evenodd"/></svg>