<svg width="256" height="256" xmlns="http://www.w3.org/2000/svg" xmlns:xlink="http://www.w3.org/1999/xlink" overflow="hidden"><path d="M24.22 67.796C24.2222 65.5896 26.0126 63.8028 28.219 63.805 28.222 63.805 28.225 63.805 28.228 63.805L113.726 63.805C122.56 63.805 133.458 69.917 138.071 77.462L191.831 165.398C195.291 171.058 203.459 175.645 210.087 175.645L226.805 175.645C229.012 175.646 230.8 177.436 230.799 179.643 230.799 179.646 230.799 179.649 230.799 179.652L230.799 188.637C230.8 190.85 229.006 192.644 226.793 192.645 226.793 192.645 226.792 192.645 226.792 192.645L202.092 192.645C193.257 192.645 182.383 186.515 177.809 178.962L125.485 92.562C122.055 86.897 113.908 82.305 107.283 82.305L28.214 82.305C26.0096 82.3039 24.2227 80.5174 24.221 78.313L24.221 67.796Z" fill="#ECD8C8" fill-rule="evenodd"/></svg>